<svg xmlns="http://www.w3.org/2000/svg" version="1.1" xmlns:xlink="http://www.w3.org/1999/xlink" xmlns:svgjs="http://svgjs.dev/svgjs" width="1000" height="1125" viewBox="0 0 1000 1125"><g transform="matrix(1,0,0,1,1.7053025658242404e-13,0)"><svg viewBox="0 0 320 360" data-background-color="#ffffff" preserveAspectRatio="xMidYMid meet" height="1125" width="1000" xmlns="http://www.w3.org/2000/svg" xmlns:xlink="http://www.w3.org/1999/xlink"><g id="tight-bounds" transform="matrix(1,0,0,1,0,0)"><svg viewBox="0 0 320 360" height="360" width="320"><g><svg></svg></g><g><svg viewBox="0 0 320 360" height="360" width="320"><g><path xmlns="http://www.w3.org/2000/svg" d="M20.961 227.22l3.726 4.658-1.863-6.056c-0.466-2.795-3.726 0.466-1.863 1.398M25.153 224.425c1.397 2.329 2.795 4.658 2.795 6.987 0 3.261 2.795 4.658 5.123 5.589-3.261-3.726-5.124-13.974-7.918-12.576M204.017 26.929c7.918 0 15.371-0.932 23.756 0.931 20.495 5.124 37.729 15.371 49.374 29.811l32.606 52.169c1.397 13.042 4.192 27.482 3.726 43.319 3.261 0 2.795-4.658 6.521-5.59-3.726 9.316-5.59 20.961-6.521 34.469-2.329-7.453 0-18.632 0.466-24.687-3.261 5.124-5.124 1.397-5.124-0.932 0.466-3.726-1.397-3.261-2.795-4.658-5.124-4.658-8.384-9.782-12.11-17.7 2.329-6.055 2.795-14.905-4.658-19.563-2.329-1.397-5.124-3.726-6.521-7.453-1.863-5.124-5.124-11.179-4.193-19.097 0.466-2.329-6.987 5.124-11.179 1.863-18.166-12.576-36.332-27.016-58.224-39.127-11.645 0-20.029-4.192-24.221-9.316-3.726-4.658-0.932-10.713 4.658-11.179 3.261 0 6.987-0.932 9.782 0.932 0.466-1.863 2.329-4.192 4.657-4.192M157.904 16.215l0.932 0.466c4.658 0.932 6.987 7.453 12.11 5.124 0 3.261 0.466 6.521-0.466 8.85-1.397 3.726-5.59 3.726-8.85 3.726-31.208-1.863-49.374 11.179-68.471 22.358-5.124 3.261-10.713 5.59-14.906 9.782-20.029 18.632-41.921 35.866-47.045 70.335l-4.192 38.195c-0.466 4.192-5.124 8.384-4.192 13.508l3.26 22.824c-3.261-3.261-5.124 0.932-4.192 2.795 0.466 1.397 2.329 6.055 5.124 1.863 3.726 6.987 7.453 20.495 12.576 26.55 15.837 18.632 36.332 35.4 53.101 52.169 4.192-0.932 7.453-0.932 8.384-3.727 1.397 2.795-1.397 5.59-3.726 6.056 7.453 4.658 15.837 8.85 27.016 9.781 14.44 0.932 27.948 3.261 40.524 6.522 6.521-1.863 13.042-2.795 20.029-3.261 2.329 0 3.726-3.726 6.521-4.658l0.466-4.658c2.795 4.192 2.329-1.397 0.466-4.192 3.261 2.795 4.192 5.124 5.589 6.987 0-1.397 3.726-6.521 3.727-0.466l0.931-6.055c1.397-0.932 1.863 5.124 3.261 0.931 1.397-4.192 4.192-0.932 6.987-2.329-0.932 1.863-0.466 5.59 2.794 3.261l3.727-3.261c2.329 5.59 6.055 3.261 7.918 2.329 20.495-13.042 40.99-28.413 60.553-43.784l-0.466 6.055 2.329-7.453c2.329 2.329 4.192 0.466 5.124-0.931 2.795-4.658 6.521-9.316 12.577-13.508-7.453 20.029-16.303 35.866-27.482 48.908l-4.658 5.59c0 3.261-0.932 7.453-4.658 7.918-1.863 0.466-5.59-0.932-8.384 1.863-1.397 1.863 3.261 5.59-0.466 2.795-3.261-2.329-6.521 0-10.248 0.932-2.795 0.932 1.863 3.726 2.795 5.589 0.932 1.863 1.863 3.726 1.398 6.056l-5.124-5.59c-6.055 3.261-9.782 9.316-14.906 13.974-2.329 1.863-1.397 5.124-1.397 7.918-3.261 0-6.987-0.932-8.85 0.932-1.397 1.863-0.932 4.658-0.932 7.453-4.658-0.466-5.124-7.453-9.315-6.056-4.192 0.932-8.85 1.397-12.577 3.727 2.795 5.59-4.658 2.329-3.726 3.26-6.987-4.192-13.042-7.453-20.495-4.658-15.837-5.124-35.4-2.795-49.84-0.931 0-2.329 0.466-4.658-0.466-5.124-0.932 2.329-3.726 1.397-3.26 1.397-8.85-6.055-17.7-9.782-27.016-14.905-8.384 0.932-16.303-3.261-18.632-5.59-6.521-6.055-13.974-2.795-20.029-4.192-13.042-3.261-17.7-16.769-19.098-26.084-0.932-4.658-4.658-6.521-6.055-6.056-6.055-19.563-15.371-37.263-22.824-55.429-1.863-4.658-1.397-9.316-1.397-14.44 2.329 0.932 4.658 0.466 4.192-2.794-2.329-15.371-7.918-27.016-13.974-38.195 3.261-15.837 3.726-34.469 11.179-48.443 6.521-12.576 18.632-19.098 27.016-29.811 2.795-3.726 2.795-8.85 5.59-12.11 9.316-9.316 18.632-19.098 28.879-27.482 4.658-3.726 10.247 0 17.234-1.397 2.329-8.384 11.645-15.837 20.495-13.508 3.726 0.932 11.179-8.85 13.508-9.782 3.726-1.397 1.863 3.726 1.863 6.987 8.85-6.987 20.961-10.713 32.14-14.906" fill="#12c555" fill-rule="nonzero" stroke="none" stroke-width="1" stroke-linecap="butt" stroke-linejoin="miter" stroke-miterlimit="10" stroke-dasharray="" stroke-dashoffset="0" font-family="none" font-weight="none" font-size="none" text-anchor="none" style="mix-blend-mode: normal" data-fill-palette-color="tertiary"></path></g><g transform="matrix(1,0,0,1,64,150.82982791586997)"><svg viewBox="0 0 192 58.34034416826004" height="58.34034416826004" width="192"><g><svg viewBox="0 0 192 58.34034416826004" height="58.34034416826004" width="192"><g><svg viewBox="0 0 192 58.34034416826004" height="58.34034416826004" width="192"><g><svg viewBox="0 0 192 58.34034416826004" height="58.34034416826004" width="192"><g><svg viewBox="0 0 192 58.34034416826004" height="58.34034416826004" width="192"><g><svg viewBox="0 0 192 58.34034416826004" height="58.34034416826004" width="192"><g transform="matrix(1,0,0,1,0,0)"><svg width="192" viewBox="1.149999976158142 -36.54999923706055 153.2100067138672 46.55999755859375" height="58.34034416826004" data-palette-color="#12c555"><path d="M25.44-21.46L12.94-6.4Q13.33-6.27 13.72-6.24 14.11-6.2 14.5-6.2L14.5-6.2Q15.48-6.2 16.38-6.47 17.29-6.74 18.08-7.24 18.87-7.74 19.49-8.46 20.12-9.18 20.51-10.06L20.51-10.06 25.39-5.15Q24.46-3.83 23.25-2.78 22.05-1.73 20.64-1 19.24-0.27 17.69 0.11 16.14 0.49 14.5 0.49L14.5 0.49Q11.74 0.49 9.31-0.54 6.88-1.56 5.07-3.39 3.25-5.22 2.2-7.75 1.15-10.28 1.15-13.31L1.15-13.31Q1.15-16.41 2.2-18.97 3.25-21.53 5.07-23.34 6.88-25.15 9.31-26.15 11.74-27.15 14.5-27.15L14.5-27.15Q16.14-27.15 17.7-26.76 19.26-26.37 20.67-25.63 22.07-24.9 23.29-23.84 24.51-22.78 25.44-21.46L25.44-21.46ZM8.59-9.84L16.36-20.14Q15.89-20.31 15.44-20.36 14.99-20.41 14.5-20.41L14.5-20.41Q13.13-20.41 11.93-19.91 10.72-19.41 9.83-18.48 8.94-17.55 8.42-16.25 7.91-14.94 7.91-13.31L7.91-13.31Q7.91-12.94 7.95-12.48 7.98-12.01 8.07-11.54 8.15-11.06 8.28-10.62 8.4-10.18 8.59-9.84L8.59-9.84ZM43.04-13.4L52.61 0 44.46 0 39.26-8.01 34.01 0 25.85 0 35.4-13.4 25.85-26.29 34.01-26.29 39.26-18.8 44.46-26.29 52.61-26.29 43.04-13.4ZM69.33 0L69.33 0 54.1 0 54.1-6.64 69.33-6.64Q70.01-6.64 70.5-7.13 70.99-7.62 70.99-8.3L70.99-8.3Q70.99-9.01 70.5-9.23 70.01-9.45 69.33-9.45L69.33-9.45 62.4-9.45Q60.66-9.45 59.15-10.11 57.64-10.77 56.51-11.9 55.39-13.04 54.74-14.55 54.1-16.06 54.1-17.8L54.1-17.8Q54.1-19.53 54.74-21.04 55.39-22.56 56.51-23.68 57.64-24.8 59.15-25.45 60.66-26.1 62.4-26.1L62.4-26.1 75.9-26.1 75.9-19.46 62.4-19.46Q61.71-19.46 61.23-18.97 60.74-18.48 60.74-17.8L60.74-17.8Q60.74-17.09 61.23-16.59 61.71-16.09 62.4-16.09L62.4-16.09 69.33-16.09Q71.04-16.09 72.55-15.52 74.07-14.94 75.19-13.92 76.31-12.89 76.97-11.45 77.63-10.01 77.63-8.3L77.63-8.3Q77.63-6.57 76.97-5.07 76.31-3.56 75.19-2.43 74.07-1.29 72.55-0.65 71.04 0 69.33 0ZM87.88-36.55L87.88 0 81.17 0 81.17-36.55 87.88-36.55ZM102.68 10.01L99.26 9.96 99.26 3.25 102.97 3.3Q103.95 3.3 104.85 2.98 105.75 2.66 106.52 2.1 107.29 1.54 107.88 0.77 108.46 0 108.83-0.9L108.83-0.9Q107.73-0.44 106.59 0.02 105.46 0.49 104.31 0.49L104.31 0.49Q101.89 0.49 99.77-0.37 97.65-1.22 96.05-2.8 94.45-4.37 93.53-6.63 92.62-8.89 92.62-11.69L92.62-11.69 92.62-26.15 99.26-26.15 99.26-11.69Q99.26-10.3 99.66-9.27 100.06-8.23 100.75-7.53 101.43-6.84 102.35-6.49 103.26-6.15 104.31-6.15L104.31-6.15Q105.34-6.15 106.25-6.63 107.17-7.1 107.85-7.89 108.53-8.67 108.93-9.66 109.32-10.64 109.32-11.69L109.32-11.69 109.32-26.15 116.03-26.15 116.03-3.3Q116.01-0.54 114.96 1.88 113.91 4.3 112.09 6.1 110.27 7.91 107.85 8.96 105.43 10.01 102.68 10.01L102.68 10.01ZM154.36-16.6L154.36 0 147.72 0 147.72-16.6Q147.72-17.29 147.46-17.9 147.2-18.51 146.74-18.97 146.28-19.43 145.67-19.69 145.06-19.95 144.37-19.95L144.37-19.95Q143.69-19.95 143.09-19.69 142.49-19.43 142.04-18.97 141.59-18.51 141.33-17.9 141.08-17.29 141.08-16.6L141.08-16.6 141.08 0 134.41 0 134.41-16.6Q134.41-17.29 134.15-17.9 133.9-18.51 133.43-18.97 132.97-19.43 132.36-19.69 131.75-19.95 131.07-19.95L131.07-19.95Q130.38-19.95 129.78-19.69 129.19-19.43 128.74-18.97 128.28-18.51 128.03-17.9 127.77-17.29 127.77-16.6L127.77-16.6 127.77 0 121.11 0 121.11-26.15 122.72-26.15 124.52-24.15Q125.92-25.32 127.59-25.96 129.26-26.61 131.07-26.61L131.07-26.61Q132.9-26.61 134.64-25.93 136.39-25.24 137.71-23.56L137.71-23.56Q138.32-24.39 139.1-24.98 139.88-25.56 140.75-25.93 141.61-26.29 142.54-26.45 143.47-26.61 144.37-26.61L144.37-26.61Q146.45-26.61 148.27-25.83 150.09-25.05 151.44-23.69 152.8-22.34 153.58-20.51 154.36-18.68 154.36-16.6L154.36-16.6Z" opacity="1" transform="matrix(1,0,0,1,0,0)" fill="#12c555" class="undefined-text-0" data-fill-palette-color="primary" id="text-0"></path></svg></g></svg></g></svg></g></svg></g><g></g></svg></g></svg></g></svg></g></svg></g><defs></defs></svg><rect width="320" height="360" fill="none" stroke="none" visibility="hidden"></rect></g></svg></g></svg>